<svg id="icon" height="512" viewBox="0 0 128 128" width="512" xmlns="http://www.w3.org/2000/svg"><path d="m21.124 38.77a23.223 23.223 0 0 1 23.727-25.507 23.137 23.137 0 0 1 11.717 3.512 23.251 23.251 0 0 1 43.3 14.972h.214a27.609 27.609 0 1 1 -20.235 47.089 23.257 23.257 0 0 1 -39.29-.434 23.256 23.256 0 1 1 -19.433-39.632z" fill="#f0f5f9"/><path d="m23.676 85.068a23.212 23.212 0 0 0 16.885-6.663 23.254 23.254 0 0 0 39.283.436 27.619 27.619 0 0 0 46.839-23.695 27.6 27.6 0 0 1 -46.839 15.343 23.254 23.254 0 0 1 -39.283-.435 23.257 23.257 0 0 1 -39.178-12.4 22.029 22.029 0 0 0 -.371 3.581 23.248 23.248 0 0 0 22.664 23.833z" fill="#d9e2e9"/><path d="m89.974 37.989a1 1 0 0 1 -.66-1.752 24.783 24.783 0 0 1 10.577-5.472 1 1 0 0 1 .382 1.963 23.2 23.2 0 0 0 -9.641 5.013 1 1 0 0 1 -.658.248z" fill="#2f3a5a"/><path d="m33.574 16.245s-14.712 9.955-3.022 23.955a3.269 3.269 0 0 0 -.356.35c-3.383-2.2-3.657-1.234-8.524-1.781 0-.002-3.323-16.284 11.902-22.524z" fill="#d9e2e9"/><path d="m60.355 90.431q-.312 0-.625-.008a24.19 24.19 0 0 1 -19.358-10.479 24.043 24.043 0 0 1 -16.72 6.124 24.26 24.26 0 0 1 -3.6-48.145c-.041-.687-.054-1.362-.037-2.016a24.258 24.258 0 0 1 36.197-20.507 24.259 24.259 0 0 1 44.947 13.263c-.018.694-.068 1.4-.151 2.121a28.608 28.608 0 1 1 -21.008 49.591 24.09 24.09 0 0 1 -19.645 10.056zm-19.606-13.619.658 1.063a22.257 22.257 0 0 0 37.6.416l.674-1.036.873.875a26.605 26.605 0 1 0 19.5-45.384h-.209l-1.145-.023.181-1.134a22.707 22.707 0 0 0 .28-2.976 22.259 22.259 0 0 0 -41.719-11.352l-.511.92-.893-.557a22.235 22.235 0 0 0 -33.919 21.05l.092.958-.954.129a22.258 22.258 0 1 0 18.6 37.927z" fill="#2f3a5a"/><path d="m29.81 41.2a1.007 1.007 0 0 1 -.327-.055 26.126 26.126 0 0 0 -8.327-1.374.978.978 0 0 1 -1.032-.967 1 1 0 0 1 .967-1.032 27.789 27.789 0 0 1 9.045 1.482 1 1 0 0 1 -.326 1.946z" fill="#2f3a5a"/><rect fill="#6bb3d9" height="61.431" rx="4.157" width="60.233" x="31.62" y="47.188"/><path d="m91.853 51.345v53.118a4.154 4.154 0 0 1 -4.16 4.154h-51.913a4.149 4.149 0 0 1 -4.142-3.816h53.523a3.307 3.307 0 0 0 3.306-3.306v-54.23a4.149 4.149 0 0 1 3.386 4.08z" fill="#477ea8"/><g fill="#2f3a5a"><path d="m87.7 109.619h-51.923a5.162 5.162 0 0 1 -5.157-5.157v-53.117a5.163 5.163 0 0 1 5.157-5.157h51.923a5.163 5.163 0 0 1 5.157 5.157v53.117a5.162 5.162 0 0 1 -5.157 5.157zm-51.923-61.431a3.16 3.16 0 0 0 -3.157 3.157v53.117a3.16 3.16 0 0 0 3.157 3.157h51.923a3.16 3.16 0 0 0 3.157-3.157v-53.117a3.16 3.16 0 0 0 -3.157-3.157z"/><path d="m44.408 99.729a1 1 0 0 1 -1-1v-41.65a1 1 0 1 1 2 0v41.65a1 1 0 0 1 -1 1z"/><path d="m55.96 99.729a1 1 0 0 1 -1-1v-41.65a1 1 0 0 1 2 0v41.65a1 1 0 0 1 -1 1z"/><path d="m67.513 99.729a1 1 0 0 1 -1-1v-41.65a1 1 0 0 1 2 0v41.65a1 1 0 0 1 -1 1z"/><path d="m79.065 99.729a1 1 0 0 1 -1-1v-41.65a1 1 0 0 1 2 0v41.65a1 1 0 0 1 -1 1z"/></g><rect fill="#c1cdd3" height="9.804" rx=".859" width="6.495" x="41.16" y="71.311"/><path d="m46.8 82.115h-4.78a1.861 1.861 0 0 1 -1.859-1.859v-8.085a1.861 1.861 0 0 1 1.859-1.859h4.78a1.861 1.861 0 0 1 1.859 1.859v8.085a1.861 1.861 0 0 1 -1.859 1.859zm-4.635-2h4.494v-7.8h-4.498z" fill="#2f3a5a"/><rect fill="#c1cdd3" height="9.804" rx=".859" width="6.495" x="52.713" y="82.373"/><path d="m58.348 93.176h-4.776a1.861 1.861 0 0 1 -1.859-1.86v-8.085a1.861 1.861 0 0 1 1.859-1.859h4.776a1.861 1.861 0 0 1 1.86 1.859v8.085a1.862 1.862 0 0 1 -1.86 1.86zm-4.635-2h4.495v-7.8h-4.495z" fill="#2f3a5a"/><rect fill="#c1cdd3" height="9.804" rx=".859" width="6.495" x="64.265" y="65.62"/><path d="m69.9 76.424h-4.775a1.862 1.862 0 0 1 -1.86-1.86v-8.085a1.861 1.861 0 0 1 1.86-1.859h4.775a1.861 1.861 0 0 1 1.859 1.859v8.085a1.861 1.861 0 0 1 -1.859 1.86zm-4.636-2h4.5v-7.8h-4.5z" fill="#2f3a5a"/><rect fill="#c1cdd3" height="9.804" rx=".859" width="6.495" x="75.818" y="78.671"/><path d="m81.453 89.475h-4.776a1.862 1.862 0 0 1 -1.86-1.86v-8.085a1.861 1.861 0 0 1 1.86-1.859h4.776a1.861 1.861 0 0 1 1.86 1.859v8.085a1.862 1.862 0 0 1 -1.86 1.86zm-4.636-2h4.5v-7.8h-4.5z" fill="#2f3a5a"/></svg>